<?xml version="1.0" encoding="UTF-8"?>
<svg viewBoxSize="575" data-root-id="5183154919781" xmlns="http://www.w3.org/2000/svg" xmlns:xlink="http://www.w3.org/1999/xlink" version="1.1" id="Layer_1" x="176.04" y="140" viewBox="248.9217529296875 268.79779052734375 1502.308837890625 1462.27197265625" xml:space="preserve" height="216.9799176359703" width="222.92080688476562" preserveAspectRatio="xMinYMin" zoom="1" editorType="buyer" data-layer-role="icon" style="position: absolute; height: 216.98px; width: 222.921px; top: 140px; left: 176.04px;"><path id="haiIzv_00000172437896203077175670000013421655606032618172_" d="M1047.9,723c-23.6,5.3-35.6,23.4-47.9,38.7  c-51.3,63.8-93.3,133.2-111.1,214.2c-16.2,74-12,146.9,16.7,218c22.3,55.3,53.2,104.2,97.6,144.5c54.4,49.4,118.9,60.2,189,50.9  c79.4-10.5,141.3-59.4,208.7-95.7c65.1-35.1,128.6-73.2,192.9-109.9c24.2-13.8,47.8-28.8,72.6-41.3c40.1-20.2,82.1,12.3,73.6,50  c-3.3,14.9-14.7,32.4-27.5,39.9c-85.3,50.3-172.2,98-258.3,147.1c-112.9,64.4-225.5,129.4-338.2,194.1  c-86.5,49.7-173,99.5-259.6,149c-15.6,8.9-28.6,13.2-48.3,1.2c-63.9-38.6-130.6-72.4-195.5-109.2c-80.4-45.7-160.4-91.9-239.8-139.3  c-34.2-20.4-67.5-42.7-98.8-67.2c-9.7-7.6-16.3-25.2-16.4-38.3c-1.5-183.5-1.4-367-2.5-550.4c-0.1-25-7.4-50.2-6-75  c2.1-35.1,5.7-70.9,14.9-104.7c29.6-109.4,84.2-205.7,165.3-285c31.5-30.8,69.8-51.4,118.2-51.2c44.9,0.2,76.1,35.7,75.7,75.6  c-0.3,31.1-7.2,62.1-11.5,93c-2.7,19.5-5.8,38.8-9.5,63.2c78.1-45,150.8-87.3,223.9-129c63.6-36.3,127.4-72.2,191.3-108  c22.7-12.7,42.9-29.2,72.1-29.4c26.5-0.2,40.2,14.1,47.1,33.9c7.5,21.5-0.7,42.3-20.9,55c-20.1,12.7-41.2,23.7-61.9,35.5  c-41.3,23.6-82.6,47.2-128.6,73.5c26.3,16.2,48,36,73.2,42.6c13.7,3.6,33.6-14.9,50.1-24.4c23.4-13.6,46-28.7,69.5-42.1  c24.6-14.1,61.5-4.2,74.7,19.2c13,23,4.8,47.6-22.3,65c-21.4,13.7-43.2,26.5-68.5,42c31.5,18.8,60.7,36.7,90.3,53.8  c50,29,100.1,57.9,150.8,85.7c6.6,3.6,18.6,3.5,25.1-0.1c74.4-41.6,147.8-85,222.4-126.3c35-19.4,72.5-0.4,77.6,36.9  c3.8,27.7-13.1,43.5-34.5,55.7c-121.7,69.4-243.5,138.5-365.2,208c-35.8,20.4-70.4,43-106.9,62.1c-56.7,29.6-121.5,9.7-126-70.9  c-2.4-42.1,8.1-84.8,12.5-127.3C1048.5,739.6,1047.9,732.3,1047.9,723z M785.7,1610c0-25.4,0-46.7,0-68c0-130,0.7-260.1-0.8-390.1  c-0.2-19.6-5.3-46.1-18.4-57.3c-26.8-22.8-60.7-37.2-91.6-55.3c-80.5-47-160.9-94.2-241.5-140.9c-28-16.2-56.6-31.3-85.8-47.3  c-1.2,5.1-2.2,7.5-2.2,9.8c-0.1,159.6-0.4,319.3,0.6,478.9c0.1,8.9,8.2,21.3,16.1,26.1c43.9,26.8,89,51.6,133.5,77.4  c71.3,41.3,142.4,83.1,213.7,124.3C733.6,1581.9,758.6,1595.1,785.7,1610z M1008.4,620.3c-53.3-31-106.7-62.8-161-92.7  c-7.6-4.2-21.9-2.5-30.2,1.9c-90,48-179.8,96.4-268.9,146.1c-53,29.6-104.6,61.6-159.9,94.4c131.4,75.8,260.3,150.2,390.5,225.3  C815.7,843.2,881,714.1,1008.4,620.3z M877.9,1352.2c0,85.4,0,168.3,0,254.2c69.7-40.4,136.5-79.3,206.3-119.8  C1019.6,1481.7,932.2,1424.2,877.9,1352.2z M517.4,413.1c-81.7,72.2-135.5,159.8-161.4,271.1c54.3-31.4,104.2-60.2,153.5-88.8  C498,533.3,508.4,473.9,517.4,413.1z M1158,706.3c-8.7,45.7-16.9,88.3-26.4,138.2c47.7-27.6,89.1-51.5,132.8-76.7  C1227.5,746.5,1194.6,727.5,1158,706.3z M1364.6,1222.8c15.8-1.7,31.7-9.6,45.8-17.7c69.2-40.2,137.8-81.4,206.7-122.1  c35.4-21,71.6-40.8,106.4-62.8c29.9-18.9,35.6-43.8,17.2-72.2c-13.6-21-38.5-30.2-67.6-13.9c-70.2,39.3-138.6,81.7-207.7,122.8  c-40.9,24.3-81.5,49.1-122.9,72.4c-19.2,10.8-28.2,25.5-26.8,47.1C1315.5,1207.9,1332.9,1226.2,1364.6,1222.8z M1650.5,749.1  c-31.4,18.7-63.8,36-95.2,54.7c-69.8,41.4-139,83.7-209,124.7c-28.5,16.7-39.9,44.2-26.3,70.9c14.4,28.4,38.7,35,71.3,17.5  c24.4-13.1,48-27.9,71.8-42.1c78.9-47.1,158.2-93.8,236.4-142.2c2.1-1.3,4-2.9,5.8-4.6c25.8-25.4,15.3-69.8-19-81.3  C1674,742.7,1661.1,742.8,1650.5,749.1z" name="Layer %{number}" zoom="1" data-layer-id="1255263519781" style="fill: rgb(243, 243, 243); fill-opacity: 1;"></path></svg> 